<svg width="2782" height="589" viewBox="0 0 2782 589" fill="none" xmlns="http://www.w3.org/2000/svg">
<path d="M125.977 171.86H146.143C160.816 171.86 172.803 183.577 173.136 198.246L173.977 235.22L168.217 233.3C171.097 219.54 176.057 207.7 183.097 197.78C190.457 187.54 199.417 179.7 209.977 174.26C220.537 168.82 232.057 166.1 244.537 166.1C266.297 166.1 284.057 172.18 297.817 184.34C311.577 196.5 320.217 213.46 323.737 235.22H315.577C319.737 213.14 328.537 196.18 341.977 184.34C355.417 172.18 372.697 166.1 393.817 166.1C411.417 166.1 426.617 169.94 439.417 177.62C452.217 184.98 461.817 195.86 468.217 210.26C474.937 224.66 478.297 242.26 478.297 263.06V427.22H454.417C439.505 427.22 427.417 415.131 427.417 400.22V275.54C427.417 253.14 423.417 236.5 415.417 225.62C407.417 214.42 395.257 208.82 378.937 208.82C368.377 208.82 359.097 211.54 351.097 216.98C343.097 222.42 336.857 230.42 332.377 240.98C328.217 251.22 326.137 263.38 326.137 277.46V427.22H304.657C289.745 427.22 277.657 415.131 277.657 400.22V277.46C277.657 255.06 273.817 238.1 266.137 226.58C258.777 214.74 246.777 208.82 230.137 208.82C219.257 208.82 209.817 211.54 201.817 216.98C193.817 222.42 187.577 230.42 183.097 240.98C178.937 251.22 176.857 263.38 176.857 277.46V427.22H125.977V171.86Z" fill="black"/>
<path d="M608.388 432.98C581.828 432.98 560.548 426.9 544.548 414.74C528.868 402.26 521.028 385.14 521.028 363.38C521.028 341.62 527.588 324.5 540.708 312.02C553.828 299.54 574.468 290.58 602.628 285.14L690.468 268.34C690.468 248.5 685.828 233.78 676.548 224.18C667.588 214.26 653.988 209.3 635.748 209.3C619.748 209.3 606.948 212.98 597.348 220.34C593.352 223.27 589.91 226.81 587.023 230.96C579.455 241.839 568.426 251.401 555.2 250.559L525.348 248.66C530.148 222.74 542.148 202.58 561.348 188.18C580.868 173.46 605.668 166.1 635.748 166.1C669.988 166.1 696.068 175.22 713.988 193.46C732.228 211.7 741.348 237.62 741.348 271.22V370.58C741.348 376.66 742.468 380.98 744.708 383.54C746.948 385.78 750.468 386.9 755.268 386.9C760.305 386.9 764.388 390.983 764.388 396.02V427.22C762.148 427.54 759.268 427.86 755.748 428.18C752.548 428.5 749.188 428.66 745.668 428.66C728.068 428.66 714.948 424.5 706.308 416.18C697.988 407.54 693.828 393.14 693.828 372.98L699.108 375.38C695.588 392.02 685.348 405.78 668.388 416.66C651.428 427.54 631.428 432.98 608.388 432.98ZM617.028 392.66C632.068 392.66 645.028 389.78 655.908 384.02C667.108 377.94 675.588 369.62 681.348 359.06C687.428 348.5 690.468 336.5 690.468 323.06V306.74L616.068 321.14C601.028 324.02 590.148 328.5 583.428 334.58C577.028 340.66 573.828 348.66 573.828 358.58C573.828 369.46 577.508 377.94 584.868 384.02C592.548 389.78 603.268 392.66 617.028 392.66Z" fill="black"/>
<path d="M906.562 504.98C886.722 504.98 868.962 501.94 853.282 495.86C837.922 489.78 825.282 481.14 815.362 469.94C805.442 459.06 798.722 446.26 795.202 431.54L848.002 428.18C851.522 439.7 857.762 448.34 866.722 454.1C876.002 459.86 889.282 462.74 906.562 462.74C928.002 462.74 944.162 458.26 955.042 449.3C966.242 440.34 971.842 426.74 971.842 408.5V371.54C965.442 384.66 955.522 395.06 942.082 402.74C928.962 410.42 914.082 414.26 897.442 414.26C876.322 414.26 857.442 409.14 840.802 398.9C824.162 388.34 811.042 373.78 801.442 355.22C792.162 336.34 787.522 314.74 787.522 290.42C787.522 266.1 792.162 244.66 801.442 226.1C810.722 207.22 823.522 192.5 839.842 181.94C856.162 171.38 874.882 166.1 896.002 166.1C913.922 166.1 929.762 170.26 943.522 178.58C957.602 186.58 967.682 197.78 973.762 212.18V198.86C973.762 183.948 985.85 171.86 1000.76 171.86H1023.2V407.06C1023.2 438.1 1012.8 462.1 992.002 479.06C971.202 496.34 942.722 504.98 906.562 504.98ZM905.602 371.06C919.042 371.06 930.722 367.86 940.642 361.46C950.562 354.74 958.242 345.3 963.682 333.14C969.442 320.98 972.322 306.58 972.322 289.94C972.322 273.62 969.602 259.38 964.162 247.22C959.042 235.06 951.362 225.78 941.122 219.38C930.882 212.66 919.042 209.3 905.602 209.3C885.442 209.3 869.442 216.66 857.602 231.38C846.082 245.78 840.322 265.3 840.322 289.94C840.322 314.9 846.242 334.74 858.082 349.46C869.922 363.86 885.762 371.06 905.602 371.06Z" fill="black"/>
<path d="M1079.21 198.86C1079.21 183.948 1091.3 171.86 1106.21 171.86H1130.09V400.22C1130.09 415.131 1118 427.22 1103.09 427.22H1079.21V198.86ZM1078.25 111.02C1078.25 96.1078 1090.34 84.0195 1105.25 84.0195H1131.53V107.9C1131.53 122.811 1119.44 134.9 1104.53 134.9H1078.25V111.02Z" fill="black"/>
<path d="M1298.51 432.98C1274.19 432.98 1252.91 427.54 1234.67 416.66C1216.43 405.78 1202.19 390.26 1191.95 370.1C1182.03 349.62 1177.07 326.1 1177.07 299.54C1177.07 272.98 1182.03 249.62 1191.95 229.46C1202.19 208.98 1216.43 193.3 1234.67 182.42C1252.91 171.54 1274.19 166.1 1298.51 166.1C1318.99 166.1 1337.23 169.78 1353.23 177.14C1369.55 184.18 1382.83 194.74 1393.07 208.82C1403.31 222.58 1409.71 239.22 1412.27 258.74L1383.83 260.291C1370 261.045 1358.62 250.656 1351.8 238.597C1348.54 232.834 1344.37 227.869 1339.31 223.7C1328.43 214.74 1314.83 210.26 1298.51 210.26C1277.07 210.26 1260.27 218.1 1248.11 233.78C1235.95 249.46 1229.87 271.38 1229.87 299.54C1229.87 327.7 1235.95 349.62 1248.11 365.3C1260.27 380.98 1277.07 388.82 1298.51 388.82C1314.83 388.82 1328.43 384.18 1339.31 374.9C1344.82 370.201 1349.26 364.353 1352.64 357.357C1358.73 344.727 1370.23 334.206 1384.23 334.97L1412.27 336.5C1409.71 356.02 1403.31 372.98 1393.07 387.38C1383.15 401.78 1370.03 412.98 1353.71 420.98C1337.39 428.98 1318.99 432.98 1298.51 432.98Z" fill="black"/>
<path d="M1677.72 432.14C1654.36 432.14 1634.2 428.62 1617.24 421.58C1600.6 414.22 1587.64 404.14 1578.36 391.34C1569.4 378.22 1564.28 363.02 1563 345.74L1591.54 344.442C1605.33 343.815 1616.48 354.403 1623.88 366.059C1626.64 370.396 1630.03 374.183 1634.04 377.42C1644.28 385.42 1658.84 389.42 1677.72 389.42C1694.04 389.42 1706.68 386.86 1715.64 381.74C1724.92 376.3 1729.56 368.14 1729.56 357.26C1729.56 350.86 1727.96 345.58 1724.76 341.42C1721.56 337.26 1715.64 333.74 1707 330.86C1698.36 327.66 1685.56 324.62 1668.6 321.74C1643.64 317.26 1623.8 311.82 1609.08 305.42C1594.68 298.7 1584.44 290.54 1578.36 280.94C1572.28 271.02 1569.24 258.86 1569.24 244.46C1569.24 220.78 1578.2 201.74 1596.12 187.34C1614.04 172.62 1639.16 165.26 1671.48 165.26C1702.84 165.26 1727.48 173.1 1745.4 188.78C1763.64 204.14 1774.68 224.3 1778.52 249.26L1749.89 250.836C1736.34 251.581 1725.19 241.438 1717.51 230.247C1714.86 226.371 1711.67 222.948 1707.96 219.98C1698.68 211.98 1686.36 207.98 1671 207.98C1655 207.98 1642.84 211.18 1634.52 217.58C1626.2 223.66 1622.04 231.98 1622.04 242.54C1622.04 250.22 1623.8 256.46 1627.32 261.26C1631.16 266.06 1637.08 270.06 1645.08 273.26C1653.4 276.14 1664.76 278.7 1679.16 280.94C1705.72 285.42 1726.36 290.86 1741.08 297.26C1755.8 303.66 1766.36 311.66 1772.76 321.26C1779.16 330.54 1782.36 342.38 1782.36 356.78C1782.36 380.46 1772.6 399.02 1753.08 412.46C1733.88 425.58 1708.76 432.14 1677.72 432.14Z" fill="black"/>
<path d="M1913.7 426.38C1889.38 426.38 1871.46 420.78 1859.94 409.58C1848.42 398.38 1842.66 380.94 1842.66 357.26V111.02H1866.54C1881.45 111.02 1893.54 123.108 1893.54 138.02V353.42C1893.54 364.94 1895.94 373.1 1900.74 377.9C1905.86 382.38 1913.86 384.62 1924.74 384.62H1934.22C1949.13 384.62 1961.22 396.708 1961.22 411.62V426.38H1913.7ZM1803.78 198.02C1803.78 183.108 1815.87 171.02 1830.78 171.02H1961.22V185.78C1961.22 200.691 1949.13 212.78 1934.22 212.78H1803.78V198.02Z" fill="black"/>
<path d="M2103.99 432.14C2079.67 432.14 2058.39 426.7 2040.15 415.82C2021.91 404.94 2007.67 389.42 1997.43 369.26C1987.51 349.1 1982.55 325.58 1982.55 298.7C1982.55 271.82 1987.51 248.3 1997.43 228.14C2007.67 207.98 2021.91 192.46 2040.15 181.58C2058.39 170.7 2079.67 165.26 2103.99 165.26C2127.99 165.26 2149.11 170.7 2167.35 181.58C2185.59 192.46 2199.67 207.98 2209.59 228.14C2219.83 248.3 2224.95 271.82 2224.95 298.7C2224.95 325.58 2219.83 349.1 2209.59 369.26C2199.67 389.42 2185.59 404.94 2167.35 415.82C2149.11 426.7 2127.99 432.14 2103.99 432.14ZM2103.99 387.98C2125.43 387.98 2142.07 380.14 2153.91 364.46C2166.07 348.46 2172.15 326.54 2172.15 298.7C2172.15 270.86 2166.07 249.1 2153.91 233.42C2142.07 217.42 2125.43 209.42 2103.99 209.42C2082.55 209.42 2065.75 217.26 2053.59 232.94C2041.43 248.62 2035.35 270.54 2035.35 298.7C2035.35 326.86 2041.43 348.78 2053.59 364.46C2065.75 380.14 2082.55 387.98 2103.99 387.98Z" fill="black"/>
<path d="M2269.55 171.02H2289.86C2304.48 171.02 2316.44 182.646 2316.85 197.254L2318.03 238.7L2313.71 237.26C2317.23 214.54 2324.27 197.9 2334.83 187.34C2345.39 176.46 2359.95 171.02 2378.51 171.02H2402.99V192.14C2402.99 205.659 2392.03 216.62 2378.51 216.62C2365.39 216.62 2354.51 218.86 2345.87 223.34C2337.55 227.5 2331.15 233.9 2326.67 242.54C2322.51 251.18 2320.43 262.22 2320.43 275.66V399.38C2320.43 414.291 2308.34 426.38 2293.43 426.38H2269.55V171.02Z" fill="black"/>
<path d="M2540.87 432.14C2516.55 432.14 2495.27 426.7 2477.03 415.82C2458.79 404.94 2444.71 389.42 2434.79 369.26C2424.87 349.1 2419.91 325.58 2419.91 298.7C2419.91 272.14 2424.87 248.78 2434.79 228.62C2444.71 208.14 2458.63 192.46 2476.55 181.58C2494.47 170.7 2515.43 165.26 2539.43 165.26C2562.79 165.26 2583.27 170.7 2600.87 181.58C2618.47 192.14 2632.07 207.66 2641.67 228.14C2651.59 248.3 2656.55 272.46 2656.55 300.62V313.58H2473.19C2474.15 337.9 2480.55 356.46 2492.39 369.26C2504.55 382.06 2520.87 388.46 2541.35 388.46C2556.39 388.46 2568.87 385.1 2578.79 378.38C2583.15 375.426 2586.96 371.915 2590.21 367.848C2597.85 358.27 2608.43 350.122 2620.67 350.9L2652.71 352.94C2645.99 377.26 2632.55 396.62 2612.39 411.02C2592.55 425.1 2568.71 432.14 2540.87 432.14ZM2602.31 275.18C2600.71 253.1 2594.31 236.46 2583.11 225.26C2572.23 214.06 2557.67 208.46 2539.43 208.46C2521.19 208.46 2506.15 214.22 2494.31 225.74C2482.79 237.26 2475.75 253.74 2473.19 275.18H2602.31Z" fill="black"/>
</svg>
