<svg width="24" height="25" viewBox="0 0 24 25" fill="none" xmlns="http://www.w3.org/2000/svg">
<path d="M23 12.6611C23 6.586 18.0751 1.66113 12 1.66113C5.92487 1.66113 1 6.586 1 12.6611C1 18.7363 5.92487 23.6611 12 23.6611C18.0751 23.6611 23 18.7363 23 12.6611ZM24 12.6611C24 19.2885 18.6274 24.6611 12 24.6611C5.37258 24.6611 0 19.2885 0 12.6611C0 6.03372 5.37258 0.661133 12 0.661133C18.6274 0.661133 24 6.03372 24 12.6611Z" fill="currentColor"/>
<path d="M14.5357 11.0198L9.09416 16.4613L8.2002 15.5674L13.6411 10.1258H8.8457V8.86133H15.8001V15.8158H14.5357V11.0198Z" fill="currentColor"/>
</svg>
